PathFileType	4	(X/Y/Z)	69_2_94_p0_0-272.trc
DataRate	CameraRate	NumFrames	NumMarkers	Units	OrigDataRate	OrigDataStartFrame	OrigNumFrames
60.0	60.0	5	27	m	60.0	102	273
Frame#	Time	RHip			RKnee			RAnkle			RBigToe			RSmallToe			RHeel			LHip			LKnee			LAnkle			LBigToe			LSmallToe			LHeel			Neck			Head			Nose			RShoulder			RElbow			RWrist			RThumb			RIndex			RPinky			LShoulder			LElbow			LWrist			LThumb			LIndex			LPinky			
		X1	Y1	Z1	X2	Y2	Z2	X3	Y3	Z3	X4	Y4	Z4	X5	Y5	Z5	X6	Y6	Z6	X7	Y7	Z7	X8	Y8	Z8	X9	Y9	Z9	X10	Y10	Z10	X11	Y11	Z11	X12	Y12	Z12	X13	Y13	Z13	X14	Y14	Z14	X15	Y15	Z15	X16	Y16	Z16	X17	Y17	Z17	X18	Y18	Z18	X19	Y19	Z19	X20	Y20	Z20	X21	Y21	Z21	X22	Y22	Z22	X23	Y23	Z23	X24	Y24	Z24	X25	Y25	Z25	X26	Y26	Z26	X27	Y27	Z27	
102	1.7	0.32317909799066735	0.45802339421046406	0.49152941608728756	0.25211798924828543	0.5046187446841691	0.9133726515950312	0.2314376704463409	0.5709759834374663	1.3170799642650919	0.26250369451107697	0.4069458123848762	1.3147015012646277	0.31888514570889415	0.45392950249464414	1.324039369730893	0.20738637084465966	0.6481915213901251	1.3847025250940965	0.13581480897335055	0.45332044817351974	0.5078769562854583	0.10343302647772346	0.4496275044003344	0.8994243678934936	0.04940857070599489	0.555194875496546	1.331533864997498	0.1210324542155937	0.3637383567489866	1.2985567163752119	0.0723963641238497	0.3940006025940674	1.3037374678621685	0.03702872769605499	0.612458237821868	1.3995881803589476	0.1858749013303618	0.5599372186977185	-0.0032192934310335004	0.2012680799677209	0.5252070018343514	-0.23286455726018349	0.21666882075696678	0.4668168268068924	-0.12489126902610803	0.3455405311103372	0.534714154356097	0.06597977410408291	0.4170040999772068	0.5606194586907752	0.28866883717354996	0.44505924917444417	0.3855190330795809	0.3522643678131978	0.43705487024629275	0.2846941714201442	0.3947982415312497	0.4518676929252315	0.25711839749355664	0.39683130933306804	0.4315163258975261	0.3037527836631551	0.42838299769230936	0.04349858442045098	0.527048836606804	0.08808775937231143	-0.04355159924152839	0.5571572037763382	0.3206013179803427	0.06609708046761323	0.4122233005707191	0.3079785932555422	0.19715321576859987	0.28663148921821213	0.270788226489404	0.1944903363467698	0.27333443983626	0.2759591577533471	0.14132255333681717	0.33116744540519844	0.34500393815146607
103	1.7166666666666666	0.3233018806501677	0.4578481317666958	0.49156135150941443	0.25215314722332954	0.5045069571591647	0.9134012242226756	0.2313621414364556	0.5711109611290669	1.3171964758821881	0.2626309860419104	0.40649882126869213	1.3145174850565242	0.31886152970863685	0.45379604661021095	1.3240563966972907	0.20712234762664913	0.6488229367716022	1.3852378600545587	0.13590853520656532	0.4531587471532386	0.5078716320214164	0.10354186359048188	0.4491906147193653	0.8990648269063963	0.049306593930973086	0.555328181169434	1.3314339740495407	0.12103194025095478	0.3637876272883944	1.2985192836405568	0.07247329077917347	0.39386475446418084	1.3035825298749304	0.03685054409774346	0.6130386893564703	1.3998414851941572	0.1858203153778502	0.5599945660814712	-0.0031234772651433577	0.20117431400087615	0.5253444557341234	-0.2327680572117054	0.21647049104404503	0.4666008005350318	-0.12155797598343011	0.345525822367547	0.5348246571872204	0.0659642215151868	0.417360940214254	0.5607156069640292	0.28538832448746565	0.4380084228460653	0.39600474977827477	0.35504935551080846	0.44046931351678464	0.27782347836660926	0.3853686486134895	0.4557574157362641	0.2577686604186229	0.3899522020138125	0.43804390073457417	0.29478379442566166	0.42139029592031074	0.04355366531535962	0.5269774190366634	0.08811189247968183	-0.04344464211029545	0.5569254564791724	0.3207645249558277	0.06612255759745277	0.4126317773267028	0.3079948340131119	0.19734500866939825	0.28655712793487553	0.27063725405995004	0.2024450635686372	0.26456121216063855	0.2735877073436146	0.14150904478150583	0.33006914025550516	0.3406399607426482
104	1.7333333333333334	0.32379399006814846	0.45724856842598005	0.49508830228354084	0.25213122992978276	0.5044801654189564	0.91342701829951	0.23136547757012454	0.5709575721100469	1.3171817406655486	0.26273077685632706	0.40640358959086403	1.3143278998789143	0.31509747464620325	0.4504564918022175	1.3228866758105722	0.2073189511613988	0.6509723734718457	1.3909093498692633	0.13598337865799	0.4530295375530848	0.5079032605189969	0.10353554289156609	0.44919865760839256	0.8991330219496357	0.03889393002821553	0.5677386244977373	1.3395475942994985	0.12092419091585707	0.36394720685137905	1.298628978825522	0.07232350246468171	0.39414567627247027	1.3037590865068185	0.025924812795429183	0.6279092630964382	1.409654305593132	0.17729050976557162	0.5703888826925293	0.005252987819656422	0.1925903098748694	0.5374044020006369	-0.22869594776390698	0.21632190946162405	0.4672703919538948	-0.11784433485179563	0.3455087050149277	0.5349086622262784	0.06605943971648945	0.4173298715547097	0.5607292916330394	0.28549824775615806	0.4451638729771086	0.3854719011711279	0.35206214096433036	0.4406904256256193	0.27731227967112776	0.3849747979562662	0.4563097499095005	0.24765940372755205	0.3869863908230747	0.43832797331396317	0.2949189953986288	0.41836572817610646	0.04354728589386954	0.5270018793011426	0.08817592067958652	-0.043768616194016466	0.5587350603570348	0.3244174929558838	0.0658879354089386	0.41278066210139086	0.3080719955186788	0.18518475497040926	0.29466428032632785	0.27313152881462294	0.18234907039986623	0.2806128055297191	0.27384094187340685	0.1412407191071196	0.3303276776979515	0.3405853434777189
105	1.75	0.32378983537936507	0.4571464274161853	0.4950584632631384	0.25209954793534795	0.5044533554291487	0.913017045487189	0.2345518532982151	0.5750629380209079	1.3185430623649557	0.2715373548403983	0.39377937786183903	1.3057819102078523	0.31995886814513913	0.45396103598715376	1.3193715986229626	0.20934913056576904	0.6707209152060432	1.4011318549694647	0.13333724437568656	0.44845869048204307	0.5029811079508368	0.10549858429214384	0.43602444221129705	0.8934728727430554	0.038889352886073966	0.5679908153638795	1.3393293904545416	0.12112279653167572	0.3636673183446154	1.2983648985820437	0.07132700115814987	0.39372779545973574	1.3079461776597279	0.02585502680614467	0.6289675602735243	1.4099895944665466	0.17733289795858498	0.5705049068411687	0.0053140977201965155	0.1924781731046785	0.5376683384671107	-0.2286144740561811	0.22592485314751373	0.4441484218929628	-0.11953478332434123	0.34550400708029094	0.5348952660019932	0.06610179013366613	0.41738937109408153	0.560762002535063	0.28542884358033144	0.4450688467171322	0.38537951481937527	0.3520786472482758	0.4374423400466412	0.2723414121291663	0.38122683964198284	0.45639487811398344	0.24749144562045228	0.3867650211855355	0.43841980160468286	0.29500421969009505	0.4185593069814531	0.04379461678026546	0.5267060011694303	0.09211182678818035	-0.04496231259578602	0.572445342908994	0.32714909616418514	0.060620601608823245	0.42183497473985726	0.3101470457238418	0.18075412950862094	0.29414166642146594	0.26986345424596075	0.17802083132593924	0.27938827721331516	0.2736627053991086	0.14109760983707395	0.3301688722472441	0.3405720081954894
106	1.7666666666666666	0.32340637736023986	0.45774498115453	0.49141576534829945	0.252939289345568	0.5043443358499207	0.9086571656195498	0.23449273459474163	0.5749245381316699	1.3184252105394956	0.26244366624085586	0.40478914147260325	1.3099165689202865	0.315926945756641	0.44882854779905407	1.313312373439904	0.20015077153633423	0.6679819905469069	1.3963623830975291	0.13321644182916012	0.4498241306007831	0.5073062420865363	0.10539851830588663	0.43623947642207406	0.8936289392696508	0.038907685571944295	0.5679381643453235	1.3393013368357416	0.12092142983945553	0.3638886162073545	1.2985443087214195	0.0723077117870004	0.3940287649850717	1.3037826132782182	0.030231754412423713	0.6345420286868103	1.4066721949592065	0.17703259978228578	0.5718368528604794	0.009630691364242851	0.1922281518803449	0.5387558831637377	-0.22486276055837964	0.22471841990405778	0.456042347847418	-0.11840735962752276	0.34550415517959765	0.5360578360580499	0.07011901537764186	0.4172323628662333	0.5610285013224025	0.2855216951372932	0.4448671131874148	0.39702243376173024	0.35458065784827164	0.4408206392192556	0.27516253120862194	0.37834459262038667	0.45607642454190644	0.25679260672059107	0.38886809703006653	0.43790624791241856	0.29493721660518923	0.42095119324395575	0.043799509035680854	0.5267175372189365	0.09215940321436182	-0.04491050676309497	0.573294609939886	0.3272613923359353	0.06063702894216582	0.42176465638105537	0.31015761500892125	0.18088599218787	0.29385255007768685	0.2696543858291832	0.17796803591222404	0.27934059026497404	0.2735531853833274	0.13293019452838206	0.33985297066394005	0.34331250770762906
